# xmcd CD database file
#
# Track frame offsets:
#	183
#	21065
#	47768
#	62970
#	104065
#	172120
#
# Disc length: 3065 seconds
#
# Revision: 0
# Processed by: cddbd v1.5.2PL0 Copyright (c) Steve Scherf et al.
# Submitted via: CDex 1.70beta2
#
DISCID=530bf706
DTITLE=Miles Davis - Miles Davis
DYEAR=1900
DGENRE=Jazz
TTITLE0=But Not For Me
TTITLE1=Round Midnight
TTITLE2=Summer Time
TTITLE3=Someday My Prince Will Come
TTITLE4=My Funny Valentine
TTITLE5=Autumn Leaves
EXTD=
EXTT0=
EXTT1=
EXTT2=
EXTT3=
EXTT4=
EXTT5=
PLAYORDER=
